# Made in Blockbench 4.6.5
mtllib motorWheels_egh.mtl

o wheel
v 0.0502404735808355 0.06470476127563018 0.1875
v 0.06474364905389032 0.0323523806378151 0.2416265877365274
v 0.06474364905389032 -0.03235238063781508 0.2416265877365274
v 0.0502404735808355 -0.06470476127563018 0.1875
v 0.03573729810778067 -0.03235238063781512 0.13337341226347257
v 0.03573729810778067 0.0323523806378151 0.13337341226347257
v 0.13725952641916447 0.06470476127563018 0.1372595264191645
v 0.17688293868263705 0.0323523806378151 0.17688293868263708
v 0.17688293868263705 -0.03235238063781508 0.17688293868263708
v 0.13725952641916447 -0.06470476127563018 0.1372595264191645
v 0.09763611415569189 -0.03235238063781512 0.0976361141556919
v 0.09763611415569189 0.0323523806378151 0.0976361141556919
v 0.1875 0.06470476127563018 0.0502404735808355
v 0.2416265877365274 0.0323523806378151 0.06474364905389032
v 0.2416265877365274 -0.03235238063781508 0.06474364905389032
v 0.1875 -0.06470476127563018 0.0502404735808355
v 0.13337341226347257 -0.03235238063781512 0.03573729810778067
v 0.13337341226347257 0.0323523806378151 0.03573729810778067
v 0.1875 0.06470476127563018 -0.05024047358083552
v 0.2416265877365274 0.0323523806378151 -0.06474364905389035
v 0.2416265877365274 -0.03235238063781508 -0.06474364905389035
v 0.1875 -0.06470476127563018 -0.05024047358083552
v 0.13337341226347257 -0.03235238063781512 -0.03573729810778069
v 0.13337341226347257 0.0323523806378151 -0.03573729810778069
v 0.1372595264191645 0.06470476127563018 -0.13725952641916447
v 0.17688293868263708 0.0323523806378151 -0.17688293868263705
v 0.17688293868263708 -0.03235238063781508 -0.17688293868263705
v 0.1372595264191645 -0.06470476127563018 -0.13725952641916447
v 0.0976361141556919 -0.03235238063781512 -0.09763611415569189
v 0.0976361141556919 0.0323523806378151 -0.09763611415569189
v 0.050240473580835554 0.06470476127563018 -0.18749999999999997
v 0.06474364905389039 0.0323523806378151 -0.24162658773652737
v 0.06474364905389039 -0.03235238063781508 -0.24162658773652737
v 0.050240473580835554 -0.06470476127563018 -0.18749999999999997
v 0.03573729810778071 -0.03235238063781512 -0.13337341226347257
v 0.03573729810778071 0.0323523806378151 -0.13337341226347257
v -0.05024047358083542 0.06470476127563018 -0.1875
v -0.06474364905389023 0.0323523806378151 -0.24162658773652743
v -0.06474364905389023 -0.03235238063781508 -0.24162658773652743
v -0.05024047358083542 -0.06470476127563018 -0.1875
v -0.03573729810778062 -0.03235238063781512 -0.1333734122634726
v -0.03573729810778062 0.0323523806378151 -0.1333734122634726
v -0.13725952641916447 0.06470476127563018 -0.1372595264191645
v -0.17688293868263705 0.0323523806378151 -0.1768829386826371
v -0.17688293868263705 -0.03235238063781508 -0.1768829386826371
v -0.13725952641916447 -0.06470476127563018 -0.1372595264191645
v -0.09763611415569189 -0.03235238063781512 -0.09763611415569193
v -0.09763611415569189 0.0323523806378151 -0.09763611415569193
v -0.1875 0.06470476127563018 -0.05024047358083548
v -0.2416265877365274 0.0323523806378151 -0.0647436490538903
v -0.2416265877365274 -0.03235238063781508 -0.0647436490538903
v -0.1875 -0.06470476127563018 -0.05024047358083548
v -0.13337341226347257 -0.03235238063781512 -0.03573729810778065
v -0.13337341226347257 0.0323523806378151 -0.03573729810778065
v -0.1875 0.06470476127563018 0.050240473580835415
v -0.24162658773652743 0.0323523806378151 0.06474364905389021
v -0.24162658773652743 -0.03235238063781508 0.06474364905389021
v -0.1875 -0.06470476127563018 0.050240473580835415
v -0.1333734122634726 -0.03235238063781512 0.03573729810778061
v -0.1333734122634726 0.0323523806378151 0.03573729810778061
v -0.1372595264191645 0.06470476127563018 0.13725952641916445
v -0.1768829386826371 0.0323523806378151 0.17688293868263702
v -0.1768829386826371 -0.03235238063781508 0.17688293868263702
v -0.1372595264191645 -0.06470476127563018 0.13725952641916445
v -0.09763611415569193 -0.03235238063781512 0.09763611415569187
v -0.09763611415569193 0.0323523806378151 0.09763611415569187
v -0.050240473580835485 0.06470476127563018 0.1875
v -0.06474364905389031 0.0323523806378151 0.2416265877365274
v -0.06474364905389031 -0.03235238063781508 0.2416265877365274
v -0.050240473580835485 -0.06470476127563018 0.1875
v -0.03573729810778066 -0.03235238063781512 0.13337341226347257
v -0.03573729810778066 0.0323523806378151 0.13337341226347257
v -0.18750000000000003 0.018750000000000044 0.012499999999999997
v -0.18750000000000003 0.018750000000000044 -0.012499999999999997
v 0.18749999999999997 0.018749999999999933 0.012499999999999997
v 0.18749999999999997 0.018749999999999933 -0.012499999999999997
v -0.18750000000000006 -0.018749999999999933 0.012499999999999997
v -0.18750000000000006 -0.018749999999999933 -0.012499999999999997
v 0.18749999999999994 -0.018750000000000044 0.012499999999999997
v 0.18749999999999994 -0.018750000000000044 -0.012499999999999997
v -0.012500002514571031 0.01875000018626502 -0.1875000000000004
v 0.012499997485428956 0.018749999813736012 -0.1875000000000004
v -0.01250000251457101 0.01875000018626402 0.1874999999999995
v 0.012499997485428977 0.018749999813735013 0.1874999999999995
v -0.012500003073364591 -0.01874999981373493 -0.18750000000000047
v 0.012499996926635396 -0.018750000186263938 -0.18750000000000047
v -0.01250000307336457 -0.01874999981373593 0.18749999999999942
v 0.012499996926635417 -0.018750000186264937 0.18749999999999942
v 0.12374368419307448 0.01874999815607503 -0.14142135623730934
v 0.14142135372273817 0.01874999789265719 -0.12374368670764567
v -0.14142135875188078 0.018750002107342845 0.123743686707646
v -0.12374368922221708 0.018750001843925 0.14142135623730967
v 0.12374368363428088 -0.01875000184392492 -0.1414213562373093
v 0.14142135316394458 -0.01875000210734276 -0.12374368670764564
v -0.14142135931067437 -0.018749997892657105 0.12374368670764603
v -0.12374368978101068 -0.01874999815607495 0.1414213562373097
v 0.14142135372273817 0.018749994204807774 0.12374368167850332
v 0.12374368419307448 0.01874999394138993 0.141421351208167
v -0.12374368922221708 0.018750006058610214 -0.14142136126645183
v -0.14142135875188078 0.01875000579519237 -0.12374369173678813
v 0.14142135316394455 -0.018750005795192176 0.12374368056091613
v 0.12374368363428088 -0.01875000605861002 0.14142135009057982
v -0.12374368978101068 -0.018749993941389737 -0.14142136238403902
v -0.14142135931067434 -0.01874999420480758 -0.12374369285437532
vt 0.348759375 0.6875
vt 0.34150625 0.65625
vt 0.40625 0.65625
vt 0.39899687500000003 0.6875
vt 0.25 0.59375
vt 0.25 0.5625
vt 0.3125 0.5625
vt 0.3125 0.59375
vt 0.15400625 0.65625
vt 0.16125937499999998 0.625
vt 0.211496875 0.625
vt 0.21875 0.65625
vt 0.5 0.90625
vt 0.49275 0.9375
vt 0.4570125 0.9375
vt 0.4497625 0.90625
vt 0.03125 0.46875
vt 0.03125 0.5
vt 0 0.5
vt 0 0.46875
vt 0.49275 0.8125
vt 0.5 0.84375
vt 0.4497625 0.84375
vt 0.4570125 0.8125
vt 0.036259374999999996 0.625
vt 0.029006249999999997 0.59375
vt 0.09375 0.59375
vt 0.086496875 0.625
vt 0.125 0.59375
vt 0.125 0.5625
vt 0.1875 0.5625
vt 0.1875 0.59375
vt 0.21650625 0.625
vt 0.22375937499999998 0.59375
vt 0.27399687500000003 0.59375
vt 0.28125 0.625
vt 0.4375 0.53125
vt 0.43025 0.5625
vt 0.3945125 0.5625
vt 0.3872625 0.53125
vt 0.5 0.65625
vt 0.5 0.6875
vt 0.46875 0.6875
vt 0.46875 0.65625
vt 0.49275 0.53125
vt 0.5 0.5625
vt 0.4497625 0.5625
vt 0.4570125 0.53125
vt 0.16125937499999998 0.6875
vt 0.15400625 0.65625
vt 0.21875 0.65625
vt 0.211496875 0.6875
vt 0 0.75
vt 0 0.71875
vt 0.0625 0.71875
vt 0.0625 0.75
vt 0.15400625 0.71875
vt 0.16125937499999998 0.6875
vt 0.211496875 0.6875
vt 0.21875 0.71875
vt 0.0502375 0.53125
vt 0.0429875 0.5625
vt 0.0072499999999999995 0.5625
vt 0 0.53125
vt 0.15625 0.5
vt 0.15625 0.53125
vt 0.125 0.53125
vt 0.125 0.5
vt 0.4179875 0.5625
vt 0.4252375 0.59375
vt 0.375 0.59375
vt 0.38225 0.5625
vt 0.382253125 1
vt 0.375 0.96875
vt 0.43974375 0.96875
vt 0.432490625 1
vt 0.0625 0.59375
vt 0.0625 0.5625
vt 0.125 0.5625
vt 0.125 0.59375
vt 0.28125 0.625
vt 0.288503125 0.59375
vt 0.338740625 0.59375
vt 0.34599375 0.625
vt 0.4877375 0.59375
vt 0.4804875 0.625
vt 0.44475 0.625
vt 0.4375 0.59375
vt 0.5 0.6875
vt 0.5 0.71875
vt 0.46875 0.71875
vt 0.46875 0.6875
vt 0.5117375 0.96875
vt 0.5189875 1
vt 0.46875 1
vt 0.476 0.96875
vt 0.319753125 0.75
vt 0.3125 0.71875
vt 0.37724375 0.71875
vt 0.369990625 0.75
vt 0.40625 0.78125
vt 0.40625 0.75
vt 0.46875 0.75
vt 0.46875 0.78125
vt 0.34375 0.875
vt 0.351003125 0.84375
vt 0.401240625 0.84375
vt 0.40849375 0.875
vt 0.4877375 0.875
vt 0.4804875 0.90625
vt 0.44475 0.90625
vt 0.4375 0.875
vt 0.5 0.5
vt 0.5 0.53125
vt 0.46875 0.53125
vt 0.46875 0.5
vt 0.2304875 0.53125
vt 0.2377375 0.5625
vt 0.1875 0.5625
vt 0.19475 0.53125
vt 0.226003125 0.75
vt 0.21875 0.71875
vt 0.28349375 0.71875
vt 0.276240625 0.75
vt 0 0.65625
vt 0 0.625
vt 0.0625 0.625
vt 0.0625 0.65625
vt 0.25 0.875
vt 0.257253125 0.84375
vt 0.307490625 0.84375
vt 0.31474375 0.875
vt 0.4564875 0.65625
vt 0.4492375 0.6875
vt 0.4135 0.6875
vt 0.40625 0.65625
vt 0.5 0.78125
vt 0.5 0.8125
vt 0.46875 0.8125
vt 0.46875 0.78125
vt 0.4492375 0.6875
vt 0.4564875 0.71875
vt 0.40625 0.71875
vt 0.4135 0.6875
vt 0.255009375 0.6875
vt 0.24775625 0.65625
vt 0.3125 0.65625
vt 0.30524687500000003 0.6875
vt 0.1875 0.59375
vt 0.1875 0.5625
vt 0.25 0.5625
vt 0.25 0.59375
vt 0.34150625 0.71875
vt 0.348759375 0.6875
vt 0.39899687500000003 0.6875
vt 0.40625 0.71875
vt 0.5 0.84375
vt 0.49275 0.875
vt 0.4570125 0.875
vt 0.4497625 0.84375
vt 0.46875 0.5
vt 0.46875 0.53125
vt 0.4375 0.53125
vt 0.4375 0.5
vt 0.30525 0.53125
vt 0.3125 0.5625
vt 0.2622625 0.5625
vt 0.2695125 0.53125
vt 0.255009375 0.65625
vt 0.24775625 0.625
vt 0.3125 0.625
vt 0.30524687500000003 0.65625
vt 0 0.59375
vt 0 0.5625
vt 0.0625 0.5625
vt 0.0625 0.59375
vt 0.40400625 0.96875
vt 0.411259375 0.9375
vt 0.46149687500000003 0.9375
vt 0.46875 0.96875
vt 0.5 0.5625
vt 0.49275 0.59375
vt 0.4570125 0.59375
vt 0.4497625 0.5625
vt 0.34375 0.5
vt 0.34375 0.53125
vt 0.3125 0.53125
vt 0.3125 0.5
vt 0.524 0.9375
vt 0.53125 0.96875
vt 0.4810125 0.96875
vt 0.4882625 0.9375
vt 0.348759375 0.8125
vt 0.34150625 0.78125
vt 0.40625 0.78125
vt 0.39899687500000003 0.8125
vt 0 0.6875
vt 0 0.65625
vt 0.0625 0.65625
vt 0.0625 0.6875
vt 0.21875 0.71875
vt 0.226003125 0.6875
vt 0.276240625 0.6875
vt 0.28349375 0.71875
vt 0.125 0.53125
vt 0.11775 0.5625
vt 0.0820125 0.5625
vt 0.07476250000000001 0.53125
vt 0.21875 0.5
vt 0.21875 0.53125
vt 0.1875 0.53125
vt 0.1875 0.5
vt 0.4615 0.625
vt 0.46875 0.65625
vt 0.4185125 0.65625
vt 0.4257625 0.625
vt 0.319753125 0.65625
vt 0.3125 0.625
vt 0.37724375 0.625
vt 0.369990625 0.65625
vt 0.375 0.625
vt 0.375 0.59375
vt 0.4375 0.59375
vt 0.4375 0.625
vt 0.09375 0.625
vt 0.101003125 0.59375
vt 0.15124062500000002 0.59375
vt 0.15849375 0.625
vt 0.0502375 0.5
vt 0.0429875 0.53125
vt 0.0072499999999999995 0.53125
vt 0 0.5
vt 0.3125 0.5
vt 0.3125 0.53125
vt 0.28125 0.53125
vt 0.28125 0.5
vt 0.1054875 0.5
vt 0.11273749999999999 0.53125
vt 0.0625 0.53125
vt 0.06975 0.5
vt 0.319753125 0.78125
vt 0.3125 0.75
vt 0.37724375 0.75
vt 0.369990625 0.78125
vt 0.40625 0.8125
vt 0.40625 0.78125
vt 0.46875 0.78125
vt 0.46875 0.8125
vt 0.34375 0.84375
vt 0.351003125 0.8125
vt 0.401240625 0.8125
vt 0.40849375 0.84375
vt 0.1752375 0.53125
vt 0.1679875 0.5625
vt 0.13225 0.5625
vt 0.125 0.53125
vt 0.0625 0.46875
vt 0.0625 0.5
vt 0.03125 0.5
vt 0.03125 0.46875
vt 0.3554875 0.53125
vt 0.3627375 0.5625
vt 0.3125 0.5625
vt 0.31975 0.53125
vt 0.257253125 0.84375
vt 0.25 0.8125
vt 0.31474375 0.8125
vt 0.307490625 0.84375
vt 0 0.71875
vt 0 0.6875
vt 0.0625 0.6875
vt 0.0625 0.71875
vt 0.125 0.75
vt 0.132253125 0.71875
vt 0.18249062500000002 0.71875
vt 0.18974375 0.75
vt 0.375 0.5625
vt 0.36775 0.59375
vt 0.3320125 0.59375
vt 0.3247625 0.5625
vt 0.1875 0.5
vt 0.1875 0.53125
vt 0.15625 0.53125
vt 0.15625 0.5
vt 0.4615 0.71875
vt 0.46875 0.75
vt 0.4185125 0.75
vt 0.4257625 0.71875
vt 0.03125 0.9375
vt 0 0.9375
vt 0 0.75
vt 0.03125 0.75
vt 0.0625 0.75
vt 0.0625 0.9375
vt 0.03125 0.9375
vt 0.03125 0.75
vt 0.25 0.5
vt 0.25 0.53125
vt 0.21875 0.53125
vt 0.21875 0.5
vt 0.5 0.78125
vt 0.46875 0.78125
vt 0.46875 0.75
vt 0.5 0.75
vt 0.1875 1
vt 0 1
vt 0 0.96875
vt 0.1875 0.96875
vt 0.1875 0.9375
vt 0.1875 0.96875
vt 0 0.96875
vt 0 0.9375
vt 0.25 0.84375
vt 0.25 0.875
vt 0.0625 0.875
vt 0.0625 0.84375
vt 0.25 0.84375
vt 0.0625 0.84375
vt 0.0625 0.8125
vt 0.25 0.8125
vt 0.5 0.71875
vt 0.5 0.75
vt 0.46875 0.75
vt 0.46875 0.71875
vt 0.28125 0.53125
vt 0.25 0.53125
vt 0.25 0.5
vt 0.28125 0.5
vt 0.25 0.9375
vt 0.0625 0.9375
vt 0.0625 0.90625
vt 0.25 0.90625
vt 0.25 0.875
vt 0.25 0.90625
vt 0.0625 0.90625
vt 0.0625 0.875
vt 0.0625 0.625
vt 0.09375 0.625
vt 0.09375 0.8125
vt 0.0625 0.8125
vt 0.375 1
vt 0.1875 1
vt 0.1875 0.96875
vt 0.375 0.96875
vt 0.375 0.5
vt 0.375 0.53125
vt 0.34375 0.53125
vt 0.34375 0.5
vt 0.5 0.65625
vt 0.46875 0.65625
vt 0.46875 0.625
vt 0.5 0.625
vt 0.3125 0.8125
vt 0.125 0.8125
vt 0.125 0.78125
vt 0.3125 0.78125
vt 0.4375 0.90625
vt 0.4375 0.9375
vt 0.25 0.9375
vt 0.25 0.90625
vt 0.09375 0.625
vt 0.125 0.625
vt 0.125 0.8125
vt 0.09375 0.8125
vt 0.375 0.96875
vt 0.1875 0.96875
vt 0.1875 0.9375
vt 0.375 0.9375
vt 0.4375 0.5
vt 0.4375 0.53125
vt 0.40625 0.53125
vt 0.40625 0.5
vt 0.40625 0.53125
vt 0.375 0.53125
vt 0.375 0.5
vt 0.40625 0.5
vt 0.3125 0.78125
vt 0.125 0.78125
vt 0.125 0.75
vt 0.3125 0.75
vt 0.4375 0.875
vt 0.4375 0.90625
vt 0.25 0.90625
vt 0.25 0.875
vn 0.256527057434103 0.8583562635740488 0.4443178969920059
vn 0.5 0 0.8660254037844387
vn 0.2565270574341031 -0.8583562635740487 0.44431789699200613
vn -0.25652705743410276 -0.8583562635740489 -0.4443178969920054
vn -0.5000000000000001 0 -0.8660254037844387
vn -0.2565270574341029 0.8583562635740488 -0.4443178969920057
vn 0.44431789699200586 0.8583562635740487 0.256527057434103
vn 0.8660254037844388 0 0.5000000000000001
vn 0.444317896992006 -0.8583562635740486 0.25652705743410315
vn -0.4443178969920054 -0.858356263574049 -0.2565270574341028
vn -0.8660254037844387 0 -0.5000000000000002
vn -0.4443178969920057 0.858356263574049 -0.2565270574341029
vn 0.513054114868206 0.8583562635740487 0
vn 1 0 0
vn 0.5130541148682062 -0.8583562635740486 0
vn -0.5130541148682055 -0.8583562635740489 0
vn -1 0 0
vn -0.5130541148682058 0.8583562635740489 0
vn 0.4443178969920058 0.8583562635740487 -0.25652705743410303
vn 0.8660254037844387 0 -0.5000000000000001
vn 0.44431789699200613 -0.8583562635740487 -0.25652705743410315
vn -0.44431789699200547 -0.8583562635740489 0.25652705743410287
vn -0.8660254037844386 0 0.5000000000000002
vn -0.44431789699200563 0.8583562635740488 0.2565270574341029
vn 0.25652705743410303 0.8583562635740488 -0.4443178969920058
vn 0.5000000000000001 0 -0.8660254037844386
vn 0.25652705743410315 -0.8583562635740486 -0.444317896992006
vn -0.2565270574341029 -0.8583562635740489 0.44431789699200536
vn -0.5000000000000003 0 0.8660254037844385
vn -0.2565270574341029 0.8583562635740488 0.44431789699200563
vn 2.1245160601294677e-16 0.8583562635740488 -0.513054114868206
vn 4.2869958708268294e-16 0 -1
vn 1.368905509868091e-16 -0.8583562635740485 -0.5130541148682062
vn -2.4055561256956965e-16 -0.8583562635740488 0.5130541148682057
vn -3.8832784073267723e-16 0 1
vn -1.3689055098680915e-16 0.8583562635740487 0.513054114868206
vn -0.25652705743410276 0.8583562635740489 -0.44431789699200586
vn -0.49999999999999967 0 -0.8660254037844389
vn -0.2565270574341028 -0.8583562635740487 -0.444317896992006
vn 0.25652705743410276 -0.8583562635740488 0.4443178969920057
vn 0.49999999999999983 0 0.8660254037844389
vn 0.2565270574341028 0.8583562635740487 0.4443178969920059
vn -0.44431789699200586 0.8583562635740489 -0.25652705743410287
vn -0.8660254037844388 0 -0.4999999999999999
vn -0.444317896992006 -0.8583562635740488 -0.25652705743410303
vn 0.44431789699200563 -0.8583562635740489 0.2565270574341027
vn 0.8660254037844387 0 0.4999999999999999
vn 0.4443178969920058 0.8583562635740488 0.2565270574341029
vn -0.513054114868206 0.8583562635740489 -1.062258030064735e-16
vn -1 0 -2.1434979354134167e-16
vn -0.5130541148682062 -0.8583562635740485 0
vn 0.5130541148682055 -0.8583562635740491 1.9244449005565582e-16
vn 1 0 3.8832784073267753e-16
vn 0.5130541148682057 0.8583562635740488 0
vn -0.4443178969920058 0.8583562635740488 0.25652705743410276
vn -0.8660254037844388 0 0.49999999999999967
vn -0.4443178969920061 -0.8583562635740488 0.2565270574341029
vn 0.4443178969920057 -0.8583562635740488 -0.25652705743410276
vn 0.8660254037844387 0 -0.49999999999999983
vn 0.4443178969920059 0.8583562635740487 -0.25652705743410287
vn -0.2565270574341029 0.8583562635740488 0.4443178969920057
vn -0.5000000000000001 0 0.8660254037844387
vn -0.2565270574341032 -0.8583562635740486 0.44431789699200586
vn 0.25652705743410287 -0.8583562635740489 -0.4443178969920055
vn 0.5000000000000001 0 -0.8660254037844388
vn 0.25652705743410303 0.8583562635740488 -0.44431789699200575
vn 0 0.8583562635740488 0.513054114868206
vn 0 0 1
vn 0 -0.8583562635740485 0.5130541148682062
vn 0 -0.8583562635740489 -0.5130541148682055
vn 0 0 -1
vn 0 0.8583562635740488 -0.5130541148682057
vn 2.9605947323337506e-16 1 0
vn -2.9605947323337506e-16 -1 0
vn -1 7.401486830834381e-16 0
vn 1 -7.401486830834381e-16 0
vn 0 0 1
vn 0 0 -1
vn 1.4901160305669243e-8 1 2.664535258307663e-15
vn -1.4901160305669246e-8 -1 -2.6645352582731963e-15
vn 3.3087222529968897e-23 2.2204460492503154e-15 -1
vn -3.3087222529968897e-23 -2.220446049250315e-15 1
vn -0.9999999999999999 1.490116160092945e-8 5.551119093592833e-17
vn 0.9999999999999999 -1.490116160092945e-8 -5.551119088997283e-17
vn 1.4901163764991574e-8 1 -3.1401849656445184e-16
vn -1.490116376499155e-8 -1 3.14018495185817e-16
vn 0.7071067811865469 -1.0536713593143141e-8 -0.7071067811865481
vn -0.7071067811865468 1.053671363123363e-8 0.7071067811865481
vn -0.7071067811865476 1.0536711256589938e-8 -0.7071067811865475
vn 0.7071067811865476 -1.0536712546414844e-8 0.7071067811865476
vn 1.490116250891761e-8 0.9999999999999994 2.980232595989067e-8
vn -1.4901162508917605e-8 -0.9999999999999994 -2.9802325959890696e-8
vn 0.7071067811865475 -3.1610139732701126e-8 0.7071067811865469
vn -0.7071067811865475 3.16101392168015e-8 -0.707106781186547
vn 0.7071067811865477 1.0536712243454841e-8 -0.7071067811865474
vn -0.7071067811865476 -1.0536713069778996e-8 0.7071067811865475
usemtl m_718a7c73-79fa-aab8-5434-210c83c55bd0
f 1/1/1 2/2/1 8/3/1 7/4/1
f 2/5/2 3/6/2 9/7/2 8/8/2
f 3/9/3 4/10/3 10/11/3 9/12/3
f 4/13/4 5/14/4 11/15/4 10/16/4
f 5/17/5 6/18/5 12/19/5 11/20/5
f 6/21/6 1/22/6 7/23/6 12/24/6
f 7/25/7 8/26/7 14/27/7 13/28/7
f 8/29/8 9/30/8 15/31/8 14/32/8
f 9/33/9 10/34/9 16/35/9 15/36/9
f 10/37/10 11/38/10 17/39/10 16/40/10
f 11/41/11 12/42/11 18/43/11 17/44/11
f 12/45/12 7/46/12 13/47/12 18/48/12
f 13/49/13 14/50/13 20/51/13 19/52/13
f 14/53/14 15/54/14 21/55/14 20/56/14
f 15/57/15 16/58/15 22/59/15 21/60/15
f 16/61/16 17/62/16 23/63/16 22/64/16
f 17/65/17 18/66/17 24/67/17 23/68/17
f 18/69/18 13/70/18 19/71/18 24/72/18
f 19/73/19 20/74/19 26/75/19 25/76/19
f 20/77/20 21/78/20 27/79/20 26/80/20
f 21/81/21 22/82/21 28/83/21 27/84/21
f 22/85/22 23/86/22 29/87/22 28/88/22
f 23/89/23 24/90/23 30/91/23 29/92/23
f 24/93/24 19/94/24 25/95/24 30/96/24
f 25/97/25 26/98/25 32/99/25 31/100/25
f 26/101/26 27/102/26 33/103/26 32/104/26
f 27/105/27 28/106/27 34/107/27 33/108/27
f 28/109/28 29/110/28 35/111/28 34/112/28
f 29/113/29 30/114/29 36/115/29 35/116/29
f 30/117/30 25/118/30 31/119/30 36/120/30
f 31/121/31 32/122/31 38/123/31 37/124/31
f 32/125/32 33/126/32 39/127/32 38/128/32
f 33/129/33 34/130/33 40/131/33 39/132/33
f 34/133/34 35/134/34 41/135/34 40/136/34
f 35/137/35 36/138/35 42/139/35 41/140/35
f 36/141/36 31/142/36 37/143/36 42/144/36
f 37/145/37 38/146/37 44/147/37 43/148/37
f 38/149/38 39/150/38 45/151/38 44/152/38
f 39/153/39 40/154/39 46/155/39 45/156/39
f 40/157/40 41/158/40 47/159/40 46/160/40
f 41/161/41 42/162/41 48/163/41 47/164/41
f 42/165/42 37/166/42 43/167/42 48/168/42
f 43/169/43 44/170/43 50/171/43 49/172/43
f 44/173/44 45/174/44 51/175/44 50/176/44
f 45/177/45 46/178/45 52/179/45 51/180/45
f 46/181/46 47/182/46 53/183/46 52/184/46
f 47/185/47 48/186/47 54/187/47 53/188/47
f 48/189/48 43/190/48 49/191/48 54/192/48
f 49/193/49 50/194/49 56/195/49 55/196/49
f 50/197/50 51/198/50 57/199/50 56/200/50
f 51/201/51 52/202/51 58/203/51 57/204/51
f 52/205/52 53/206/52 59/207/52 58/208/52
f 53/209/53 54/210/53 60/211/53 59/212/53
f 54/213/54 49/214/54 55/215/54 60/216/54
f 55/217/55 56/218/55 62/219/55 61/220/55
f 56/221/56 57/222/56 63/223/56 62/224/56
f 57/225/57 58/226/57 64/227/57 63/228/57
f 58/229/58 59/230/58 65/231/58 64/232/58
f 59/233/59 60/234/59 66/235/59 65/236/59
f 60/237/60 55/238/60 61/239/60 66/240/60
f 61/241/61 62/242/61 68/243/61 67/244/61
f 62/245/62 63/246/62 69/247/62 68/248/62
f 63/249/63 64/250/63 70/251/63 69/252/63
f 64/253/64 65/254/64 71/255/64 70/256/64
f 65/257/65 66/258/65 72/259/65 71/260/65
f 66/261/66 61/262/66 67/263/66 72/264/66
f 67/265/67 68/266/67 2/267/67 1/268/67
f 68/269/68 69/270/68 3/271/68 2/272/68
f 69/273/69 70/274/69 4/275/69 3/276/69
f 70/277/70 71/278/70 5/279/70 4/280/70
f 71/281/71 72/282/71 6/283/71 5/284/71
f 72/285/72 67/286/72 1/287/72 6/288/72
f 74/289/73 73/290/73 75/291/73 76/292/73
f 79/293/74 77/294/74 78/295/74 80/296/74
f 77/297/75 73/298/75 74/299/75 78/300/75
f 76/301/76 75/302/76 79/303/76 80/304/76
f 75/305/77 73/306/77 77/307/77 79/308/77
f 78/309/78 74/310/78 76/311/78 80/312/78
f 82/313/79 81/314/79 83/315/79 84/316/79
f 87/317/80 85/318/80 86/319/80 88/320/80
f 85/321/81 81/322/81 82/323/81 86/324/81
f 84/325/82 83/326/82 87/327/82 88/328/82
f 83/329/83 81/330/83 85/331/83 87/332/83
f 86/333/84 82/334/84 84/335/84 88/336/84
f 90/337/85 89/338/85 91/339/85 92/340/85
f 95/341/86 93/342/86 94/343/86 96/344/86
f 93/345/87 89/346/87 90/347/87 94/348/87
f 92/349/88 91/350/88 95/351/88 96/352/88
f 91/353/89 89/354/89 93/355/89 95/356/89
f 94/357/90 90/358/90 92/359/90 96/360/90
f 98/361/91 97/362/91 99/363/91 100/364/91
f 103/365/92 101/366/92 102/367/92 104/368/92
f 101/369/93 97/370/93 98/371/93 102/372/93
f 100/373/94 99/374/94 103/375/94 104/376/94
f 99/377/95 97/378/95 101/379/95 103/380/95
f 102/381/96 98/382/96 100/383/96 104/384/96