# Made in Blockbench 4.6.5
mtllib birdTest.mtl

o l_foot
v 0.25 0.125 0.3125
v 0.25 0.125 0.0625
v 0.25 0 0.3125
v 0.25 0 0.0625
v -0.25 0.125 0.3125
v -0.25 0.125 0.0625
v -0.25 0 0.3125
v -0.25 0 0.0625
vt 0.578125 0.328125
vt 0.515625 0.328125
vt 0.515625 0.296875
vt 0.578125 0.296875
vt 0.765625 0.828125
vt 0.765625 0.859375
vt 0.703125 0.859375
vt 0.703125 0.828125
vt 0.625 0.390625
vt 0.75 0.390625
vt 0.75 0.453125
vt 0.625 0.453125
vt 0.75 0.328125
vt 0.75 0.390625
vt 0.625 0.390625
vt 0.625 0.328125
vt 0.828125 0.96875
vt 0.828125 1
vt 0.703125 1
vt 0.703125 0.96875
vt 0.1875 0.296875
vt 0.0625 0.296875
vt 0.0625 0.265625
vt 0.1875 0.265625
vn 1 0 0
vn -1 0 0
vn 0 1 0
vn 0 -1 0
vn 0 0 1
vn 0 0 -1
usemtl m_e29b6a64-8b4c-2705-caf8-3839ed378a94
f 2/1/1 1/2/1 3/3/1 4/4/1
f 7/5/2 5/6/2 6/7/2 8/8/2
f 5/9/3 1/10/3 2/11/3 6/12/3
f 4/13/4 3/14/4 7/15/4 8/16/4
f 3/17/5 1/18/5 5/19/5 7/20/5
f 6/21/6 2/22/6 4/23/6 8/24/6
o l_ankle
v 0 0.0625 0.1875
v 0 0.1875 0.1875
v 0.0721687836487032 0.0625 0.25
v 0.0721687836487032 0.1875 0.25
v 0.14433756729740643 0.0625 0.1875
v 0.14433756729740643 0.1875 0.1875
v 0.0721687836487032 0.0625 0.125
v 0.0721687836487032 0.1875 0.125
v -0.07216878364870323 0.0625 0.125
v -0.07216878364870323 0.1875 0.125
v -0.14433756729740643 0.0625 0.1875
v -0.14433756729740643 0.1875 0.1875
v -0.07216878364870329 0.0625 0.25
v -0.07216878364870329 0.1875 0.25
vt 0.223584375 0.28125
vt 0.2055421875 0.296875
vt 0.1875 0.28125
vt 0.703125 0.671875
vt 0.734375 0.671875
vt 0.734375 0.703125
vt 0.703125 0.703125
vt 0.7211671875 0.765625
vt 0.739209375 0.78125
vt 0.703125 0.78125
vt 0.2055421875 0.265625
vt 0.223584375 0.28125
vt 0.1875 0.28125
vt 0.703125 0.640625
vt 0.734375 0.640625
vt 0.734375 0.671875
vt 0.703125 0.671875
vt 0.739209375 0.78125
vt 0.7211671875 0.796875
vt 0.703125 0.78125
vt 0.515625 0.328125
vt 0.551709375 0.328125
vt 0.5336671875 0.34375
vt 0.0625 0.328125
vt 0.09375 0.328125
vt 0.09375 0.359375
vt 0.0625 0.359375
vt 0.551709375 0.296875
vt 0.515625 0.296875
vt 0.5336671875 0.28125
vt 0.234375 0.28125
vt 0.2524171875 0.265625
vt 0.270459375 0.28125
vt 0.4375 0.265625
vt 0.46875 0.265625
vt 0.46875 0.296875
vt 0.4375 0.296875
vt 0.7211671875 0.765625
vt 0.703125 0.75
vt 0.739209375 0.75
vt 0.2524171875 0.296875
vt 0.234375 0.28125
vt 0.270459375 0.28125
vt 0.28125 0.265625
vt 0.3125 0.265625
vt 0.3125 0.296875
vt 0.28125 0.296875
vt 0.703125 0.75
vt 0.7211671875 0.734375
vt 0.739209375 0.75
vt 0.661084375 0.296875
vt 0.625 0.296875
vt 0.6430421875 0.28125
vt 0.703125 0.703125
vt 0.734375 0.703125
vt 0.734375 0.734375
vt 0.703125 0.734375
vt 0.671875 0.28125
vt 0.707959375 0.28125
vt 0.6899171875 0.296875
vn 0 -1 0
vn 0.6546536707079771 0 0.7559289460184545
vn 0 1 0
vn 0 -1 0
vn 0.6546536707079771 0 -0.7559289460184545
vn 0 1 0
vn 0 -1 0
vn 0 0 -1
vn 0 1 0
vn 0 -1 0
vn -0.6546536707079773 0 -0.7559289460184545
vn 0 1 0
vn 0 -1 0
vn -0.6546536707079775 0 0.7559289460184542
vn 0 1 0
vn 0 -1 0
vn 0 0 1
vn 0 1 0
usemtl m_e29b6a64-8b4c-2705-caf8-3839ed378a94
f 13/25/7 11/26/7 9/27/7
f 11/28/8 13/29/8 14/30/8 12/31/8
f 12/32/9 14/33/9 10/34/9
f 15/35/10 13/36/10 9/37/10
f 13/38/11 15/39/11 16/40/11 14/41/11
f 14/42/12 16/43/12 10/44/12
f 17/45/13 15/46/13 9/47/13
f 15/48/14 17/49/14 18/50/14 16/51/14
f 16/52/15 18/53/15 10/54/15
f 19/55/16 17/56/16 9/57/16
f 17/58/17 19/59/17 20/60/17 18/61/17
f 18/62/18 20/63/18 10/64/18
f 21/65/19 19/66/19 9/67/19
f 19/68/20 21/69/20 22/70/20 20/71/20
f 20/72/21 22/73/21 10/74/21
f 11/75/22 21/76/22 9/77/22
f 21/78/23 11/79/23 12/80/23 22/81/23
f 22/82/24 12/83/24 10/84/24
o r_ankle
v -2.296212748401287e-17 0.0625 -0.1875
v -2.296212748401287e-17 0.1875 -0.1875
v -0.07216878364870323 0.0625 -0.25
v -0.07216878364870323 0.1875 -0.25
v -0.14433756729740646 0.0625 -0.18749999999999997
v -0.14433756729740646 0.1875 -0.18749999999999997
v -0.07216878364870322 0.0625 -0.12499999999999999
v -0.07216878364870322 0.1875 -0.12499999999999999
v 0.07216878364870322 0.0625 -0.125
v 0.07216878364870322 0.1875 -0.125
v 0.1443375672974064 0.0625 -0.18750000000000003
v 0.1443375672974064 0.1875 -0.18750000000000003
v 0.07216878364870326 0.0625 -0.25
v 0.07216878364870326 0.1875 -0.25
vt 0.036084375 0.515625
vt 0.0180421875 0.53125
vt 0 0.515625
vt 0.484375 0.9375
vt 0.515625 0.9375
vt 0.515625 0.96875
vt 0.484375 0.96875
vt 0.4086671875 0.359375
vt 0.426709375 0.375
vt 0.390625 0.375
vt 0.0180421875 0.5
vt 0.036084375 0.515625
vt 0 0.515625
vt 0.46875 0.421875
vt 0.5 0.421875
vt 0.5 0.453125
vt 0.46875 0.453125
vt 0.426709375 0.375
vt 0.4086671875 0.390625
vt 0.390625 0.375
vt 0.1875 0.8125
vt 0.223584375 0.8125
vt 0.2055421875 0.828125
vt 0 0.96875
vt 0.03125 0.96875
vt 0.03125 1
vt 0 1
vt 0.254834375 0.890625
vt 0.21875 0.890625
vt 0.2367921875 0.875
vt 0.390625 0.296875
vt 0.4086671875 0.28125
vt 0.426709375 0.296875
vt 0.59375 0.8125
vt 0.625 0.8125
vt 0.625 0.84375
vt 0.59375 0.84375
vt 0.5961671875 0.3125
vt 0.578125 0.296875
vt 0.614209375 0.296875
vt 0.4086671875 0.3125
vt 0.390625 0.296875
vt 0.426709375 0.296875
vt 0.203125 0.96875
vt 0.234375 0.96875
vt 0.234375 1
vt 0.203125 1
vt 0.578125 0.296875
vt 0.5961671875 0.28125
vt 0.614209375 0.296875
vt 0.520459375 0.90625
vt 0.484375 0.90625
vt 0.5024171875 0.890625
vt 0 0.8125
vt 0.03125 0.8125
vt 0.03125 0.84375
vt 0 0.84375
vt 0.53125 0.890625
vt 0.567334375 0.890625
vt 0.5492921875 0.90625
vn 0 -1 0
vn -0.6546536707079772 0 -0.7559289460184544
vn 0 1 0
vn 0 -1 0
vn -0.654653670707977 0 0.7559289460184546
vn 0 1 0
vn 0 -1 0
vn 1.2246467991473532e-16 0 1
vn 0 1 0
vn 0 -1 0
vn 0.6546536707079774 0 0.7559289460184544
vn 0 1 0
vn 0 -1 0
vn 0.6546536707079774 0 -0.7559289460184543
vn 0 1 0
vn 0 -1 0
vn -1.2246467991473532e-16 0 -1
vn 0 1 0
usemtl m_e29b6a64-8b4c-2705-caf8-3839ed378a94
f 27/85/25 25/86/25 23/87/25
f 25/88/26 27/89/26 28/90/26 26/91/26
f 26/92/27 28/93/27 24/94/27
f 29/95/28 27/96/28 23/97/28
f 27/98/29 29/99/29 30/100/29 28/101/29
f 28/102/30 30/103/30 24/104/30
f 31/105/31 29/106/31 23/107/31
f 29/108/32 31/109/32 32/110/32 30/111/32
f 30/112/33 32/113/33 24/114/33
f 33/115/34 31/116/34 23/117/34
f 31/118/35 33/119/35 34/120/35 32/121/35
f 32/122/36 34/123/36 24/124/36
f 35/125/37 33/126/37 23/127/37
f 33/128/38 35/129/38 36/130/38 34/131/38
f 34/132/39 36/133/39 24/134/39
f 25/135/40 35/136/40 23/137/40
f 35/138/41 25/139/41 26/140/41 36/141/41
f 36/142/42 26/143/42 24/144/42
o r_foot
v -0.25000000000000006 0.125 -0.31249999999999994
v -0.25 0.125 -0.06249999999999997
v -0.25000000000000006 0 -0.31249999999999994
v -0.25 0 -0.06249999999999997
v 0.24999999999999997 0.125 -0.31250000000000006
v 0.25 0.125 -0.06250000000000003
v 0.24999999999999997 0 -0.31250000000000006
v 0.25 0 -0.06250000000000003
vt 0.0625 0.5625
vt 0 0.5625
vt 0 0.53125
vt 0.0625 0.53125
vt 0.546875 0.90625
vt 0.546875 0.9375
vt 0.484375 0.9375
vt 0.484375 0.90625
vt 0.59375 0.515625
vt 0.71875 0.515625
vt 0.71875 0.578125
vt 0.59375 0.578125
vt 0.75 0.453125
vt 0.75 0.515625
vt 0.625 0.515625
vt 0.625 0.453125
vt 0.765625 0.90625
vt 0.765625 0.9375
vt 0.640625 0.9375
vt 0.640625 0.90625
vt 0.796875 0.96875
vt 0.671875 0.96875
vt 0.671875 0.9375
vt 0.796875 0.9375
vn -1 0 1.2246467991473532e-16
vn 1 0 -1.2246467991473532e-16
vn 0 1 0
vn 0 -1 0
vn -1.2246467991473532e-16 0 -1
vn 1.2246467991473532e-16 0 1
usemtl m_e29b6a64-8b4c-2705-caf8-3839ed378a94
f 38/145/43 37/146/43 39/147/43 40/148/43
f 43/149/44 41/150/44 42/151/44 44/152/44
f 41/153/45 37/154/45 38/155/45 42/156/45
f 40/157/46 39/158/46 43/159/46 44/160/46
f 39/161/47 37/162/47 41/163/47 43/164/47
f 42/165/48 38/166/48 40/167/48 44/168/48
o l_wing
v 0.25 1.127910238275494 0.43502665579437805
v 0.25 1.115673407754864 0.3420787000405833
v 0.25 0.384326592245136 0.5329212999594167
v 0.25 0.37208976172450614 0.43997334420562195
v -0.25 1.127910238275494 0.43502665579437805
v -0.25 1.115673407754864 0.3420787000405833
v -0.25 0.384326592245136 0.5329212999594167
v -0.25 0.37208976172450614 0.43997334420562195
vt 0.0625 0.390625
vt 0.03125 0.390625
vt 0.03125 0.203125
vt 0.0625 0.203125
vt 0.390625 0.203125
vt 0.390625 0.390625
vt 0.359375 0.390625
vt 0.359375 0.203125
vt 0.1875 0.296875
vt 0.3125 0.296875
vt 0.3125 0.328125
vt 0.1875 0.328125
vt 0.75 0.296875
vt 0.75 0.328125
vt 0.625 0.328125
vt 0.625 0.296875
vt 0.59375 0.703125
vt 0.59375 0.890625
vt 0.46875 0.890625
vt 0.46875 0.703125
vt 0.59375 0.703125
vt 0.46875 0.703125
vt 0.46875 0.515625
vt 0.59375 0.515625
vn 1 0 0
vn -1 0 0
vn 0 0.9914448613738104 -0.13052619222005157
vn 0 -0.9914448613738104 0.13052619222005157
vn 0 0.13052619222005157 0.9914448613738104
vn 0 -0.13052619222005157 -0.9914448613738104
usemtl m_e29b6a64-8b4c-2705-caf8-3839ed378a94
f 46/169/49 45/170/49 47/171/49 48/172/49
f 51/173/50 49/174/50 50/175/50 52/176/50
f 49/177/51 45/178/51 46/179/51 50/180/51
f 48/181/52 47/182/52 51/183/52 52/184/52
f 47/185/53 45/186/53 49/187/53 51/188/53
f 50/189/54 46/190/54 48/191/54 52/192/54
o r_wing
v -0.25 1.127910238275494 -0.43502665579437805
v -0.25 1.115673407754864 -0.34207870004058333
v -0.2500000000000001 0.384326592245136 -0.5329212999594167
v -0.2500000000000001 0.37208976172450614 -0.43997334420562195
v 0.2499999999999999 1.1279102382754937 -0.435026655794378
v 0.2499999999999999 1.115673407754864 -0.3420787000405833
v 0.2499999999999998 0.384326592245136 -0.5329212999594167
v 0.2499999999999998 0.37208976172450614 -0.43997334420562195
vt 0.03125 0.421875
vt 0 0.421875
vt 0 0.234375
vt 0.03125 0.234375
vt 0.359375 0.21875
vt 0.359375 0.40625
vt 0.328125 0.40625
vt 0.328125 0.21875
vt 0.0625 0.296875
vt 0.1875 0.296875
vt 0.1875 0.328125
vt 0.0625 0.328125
vt 0.796875 0.796875
vt 0.796875 0.828125
vt 0.671875 0.828125
vt 0.671875 0.796875
vt 0.234375 0.40625
vt 0.234375 0.59375
vt 0.109375 0.59375
vt 0.109375 0.40625
vt 0.359375 0.59375
vt 0.234375 0.59375
vt 0.234375 0.40625
vt 0.359375 0.40625
vn -1 1.2666917198569545e-16 -2.3909528745744482e-17
vn 1 -1.2666917198569545e-16 2.3909528745744482e-17
vn 1.2246467991473535e-16 0.9914448613738105 0.13052619222005157
vn -1.2246467991473535e-16 -0.9914448613738105 -0.13052619222005157
vn 4.023862410379744e-17 0.13052619222005155 -0.9914448613738104
vn -4.023862410379744e-17 -0.13052619222005155 0.9914448613738104
usemtl m_e29b6a64-8b4c-2705-caf8-3839ed378a94
f 54/193/55 53/194/55 55/195/55 56/196/55
f 59/197/56 57/198/56 58/199/56 60/200/56
f 57/201/57 53/202/57 54/203/57 58/204/57
f 56/205/58 55/206/58 59/207/58 60/208/58
f 55/209/59 53/210/59 57/211/59 59/212/59
f 58/213/60 54/214/60 56/215/60 60/216/60
o body
v 0 0.1875 0
v 0 1.8125 0
v 0.2261751345948128 0.1875 0.375
v 0.3511751345948128 1.4375 0.4375
v 0.45235026918962573 0.1875 2.6514380968122673e-17
v 0.8273502691896262 1.5 3.0933444462809784e-17
v 0.2261751345948128 0.1875 -0.375
v 0.35117513459481287 1.4375 -0.4375
v -0.2261751345948129 0.1875 -0.37499999999999994
v -0.16367513459481287 1.4375 -0.37499999999999994
v -0.45235026918962573 0.1875 -7.954314290436801e-17
v -0.5148502691896257 1.4375 -7.954314290436801e-17
v -0.2261751345948131 0.1875 0.3749999999999999
v -0.1636751345948131 1.4375 0.3749999999999999
v -0.16367513459481287 1.125 -0.37499999999999994
v 0.2886751345948128 1.125 -0.4375
v 0.5148502691896257 1.125 3.0933444462809784e-17
v 0.2886751345948128 1.125 0.4375
v -0.1636751345948131 1.125 0.3749999999999999
v -0.38985026918962573 1.125 -7.954314290436801e-17
vt 0.226175 0.90625
vt 0.16963124999999998 1
vt 0.1130875 0.90625
vt 0.24295937499999998 0.8125
vt 0.359375 0.8125
vt 0.359375 0.890625
vt 0.21875 0.859375
vt 0.009470974646762886 0.4493369953861277
vt 0.10937499999999997 0.34696374169291255
vt 0.109375 0.5625
vt 0.16963124999999998 0.8125
vt 0.226175 0.90625
vt 0.1130875 0.90625
vt 0.59375 0.578125
vt 0.7032328125 0.578125
vt 0.7274421875 0.640625
vt 0.59375 0.6382546874999999
vt 0.484375 0.9999999999999999
vt 0.5867482536932151 0.9000959746467628
vt 0.6999112583070874 1
vt 0.05654375 0.8125
vt 0.16963124999999998 0.8125
vt 0.1130875 0.90625
vt 0.47404791936852053 0.5156249999999999
vt 0.5281139745131956 0.41629905003050327
vt 0.625 0.515625
vt 0 0.90625
vt 0.05654375 0.8125
vt 0.1130875 0.90625
vt 0.59375 0.640625
vt 0.703125 0.640625
vt 0.703125 0.71875
vt 0.59375 0.71875
vt 0.5956221978305906 0.90625
vt 0.6422901039405849 0.8072133873717843
vt 0.734375 0.90625
vt 0.05654375 1
vt 0 0.90625
vt 0.1130875 0.90625
vt 0.21875 0.328125
vt 0.328125 0.328125
vt 0.328125 0.40625
vt 0.21875 0.40625
vt 0.40625 0.32979010394058483
vt 0.5052866126282156 0.28312219783059056
vt 0.5052866126282156 0.421875
vt 0.16963124999999998 1
vt 0.05654375 1
vt 0.1130875 0.90625
vt 0.59375 0.71875
vt 0.703125 0.71875
vt 0.703125 0.796875
vt 0.59375 0.796875
vt 0.515625 0.37186397451319564
vt 0.6149509499694967 0.31779791936852053
vt 0.6149509499694967 0.46875
vt 0.109375 0.328125
vt 0.21875 0.328125
vt 0.21875 0.40625
vt 0.109375 0.40625
vt 0.109375 0.5700822754853161
vt 0.109375 0.8049775313973927
vt 0 0.8125
vt 0 0.5776047440879233
vt 0.46875 0.390625
vt 0.46875 0.6255198735937526
vt 0.359375 0.6292806599823358
vt 0.359375 0.3943857327159692
vt 0.24948007272844278 0.890625
vt 0.484375 0.890625
vt 0.4806134862009708 1
vt 0.24571861261240888 1
vt 0.11689746860260716 0.703125
vt 0.35179272451468385 0.703125
vt 0.34427025591207666 0.8125
vt 0.109375 0.8125
vt 0.1131364601160339 0.59375
vt 0.3480313873875911 0.59375
vt 0.3442699272715572 0.703125
vt 0.109375 0.703125
vt 0.46875 0.6519686126124089
vt 0.46875 0.8868635398839662
vt 0.359375 0.890625
vt 0.359375 0.6557300727284427
vn 0 -1 0
vn -0.8746192884742477 0.17492385769484958 -0.4521534520911601
vn 0.3137227487478366 0.8305875220077829 0.46011129653929683
vn 0 -1 0
vn -0.7139753808434899 0.5949794840362423 0.3691050922506494
vn 0.3137227487478367 0.8305875220077829 -0.4601112965392967
vn 0 -1 0
vn -0.08330509589742287 0.7225943441850099 -0.6862344167624914
vn 0 -1 0
vn 0.8563068018520278 0 0.5164674831022298
vn -0.5155791124562142 0.7078561195643474 -0.4828228378962274
vn 0 -1 0
vn 0.8101030267439235 0.32404121069756936 -0.48860042962525874
vn -0.5155791124562145 0.7078561195643475 0.48282283789622715
vn 0 -1 0
vn 0.13686703309170553 0 -0.9905894281954932
vn -0.08330509589742291 0.7225943441850099 0.6862344167624914
vn 0.13681578442457767 -0.02736315688491556 0.9902185106215592
vn -0.13686133595122912 0.009124089063415278 -0.9905481945470437
vn 0.884752292265813 -0.08947628139467927 -0.45739192865437595
vn 0.886761733482096 -0.0591174488988064 0.4584307529687833
vn -0.13664589368301266 -0.05682286766504467 0.9889889086586826
vn -0.8549148771403211 0.056994325142688075 0.5156279664115196
vn -0.8549148771403209 0.05699432514268806 -0.5156279664115201
usemtl m_e29b6a64-8b4c-2705-caf8-3839ed378a94
f 65/217/61 63/218/61 61/219/61
f 77/220/62 78/221/62 64/222/62 66/223/62
f 64/224/63 66/225/63 62/226/63
f 67/227/64 65/228/64 61/229/64
f 76/230/65 77/231/65 66/232/65 68/233/65
f 66/234/66 68/235/66 62/236/66
f 69/237/67 67/238/67 61/239/67
f 68/240/68 70/241/68 62/242/68
f 71/243/69 69/244/69 61/245/69
f 80/246/70 75/247/70 70/248/70 72/249/70
f 70/250/71 72/251/71 62/252/71
f 73/253/72 71/254/72 61/255/72
f 79/256/73 80/257/73 72/258/73 74/259/73
f 72/260/74 74/261/74 62/262/74
f 63/263/75 73/264/75 61/265/75
f 78/266/76 79/267/76 74/268/76 64/269/76
f 74/270/77 64/271/77 62/272/77
f 75/273/78 76/274/78 68/275/78 70/276/78
f 69/277/79 75/278/79 76/279/79 67/280/79
f 67/281/80 76/282/80 77/283/80 65/284/80
f 65/285/81 77/286/81 78/287/81 63/288/81
f 63/289/82 78/290/82 79/291/82 73/292/82
f 73/293/83 79/294/83 80/295/83 71/296/83
f 71/297/84 80/298/84 75/299/84 69/300/84
